# xmcd
#
# Track frame offsets: 
#        150
#        462
#        18160
#        37292
#        58072
#        71975
#        82200
#        94590
#        113427
#        123592
#        135172
#        147802
#        161810
#        171830
#
# Disc length: 2615 seconds
#
# Revision: 4
# Processed by: cddbd v1.5.2PL0 Copyright (c) Steve Scherf et al.
# Submitted via: ExactAudioCopy v1.0b6
#
DISCID=bb0a350e
DTITLE=Guy Davis - Butt Naked Free
DYEAR=2000
DGENRE=Blues
TTITLE0=Talkin' 'Bout Wings 'N' Brew
TTITLE1=Waiting On The Cards To Fall
TTITLE2=Let Me Stay Awhile
TTITLE3=Writing Paper Blues
TTITLE4=Sometimes I Wish...
TTITLE5=High Flying Rocket
TTITLE6=Never Met No Woman Treats Me Like You Do
TTITLE7=Sugarbelle Blue
TTITLE8=Meet Me Where The River Turns
TTITLE9=My Rambling Ways
TTITLE10=Come On Sally Hitch A Ride
TTITLE11=Ain't No Bluesman
TTITLE12=The Place Where I Come From (Butt Naked Free)
TTITLE13=Raining In My Soul
EXTD=YEAR: 2000
EXTT0=
EXTT1=
EXTT2=
EXTT3=
EXTT4=
EXTT5=
EXTT6=
EXTT7=
EXTT8=
EXTT9=
EXTT10=
EXTT11=
EXTT12=
EXTT13=
PLAYORDER=
